<?xml version="1.0" encoding="UTF-8"?> <svg xmlns="http://www.w3.org/2000/svg" xmlns:xlink="http://www.w3.org/1999/xlink" width="60px" height="60px" viewBox="0 0 60 60"><!-- Generator: Sketch 57.1 (83088) - https://sketch.com --><title>Group 5</title><desc>Created with Sketch.</desc><g id="Wireframes" stroke="none" stroke-width="1" fill="none" fill-rule="evenodd"><g id="01---Homepage" transform="translate(-201.000000, -5207.000000)" fill="#EF3D5B"><g id="Group-21" transform="translate(120.000000, 5206.500000)"><g id="Group-5" transform="translate(81.000000, 0.500000)"><rect id="Rectangle" opacity="0.2" x="0" y="0" width="60" height="60" rx="8"></rect><g id="people-carry" transform="translate(15.000000, 17.916667)" fill-rule="nonzero"><path d="M23.9625585,0 C22.7218564,0 21.7160686,1.00578777 21.7160686,2.24648986 C21.7160686,3.48719195 22.7218564,4.49297972 23.9625585,4.49297972 C25.2032606,4.49297972 26.2090484,3.48719195 26.2090484,2.24648986 C26.2090484,1.00578777 25.2032606,0 23.9625585,0 L23.9625585,0 Z M5.99063963,0 C4.74993754,0 3.74414977,1.00578777 3.74414977,2.24648986 C3.74414977,3.48719195 4.74993754,4.49297972 5.99063963,4.49297972 C7.23134172,4.49297972 8.23712949,3.48719195 8.23712949,2.24648986 C8.23712949,1.00578777 7.23134172,0 5.99063963,0 L5.99063963,0 Z M18.7207488,5.99063961 L11.2324493,5.99063961 C10.8188819,5.99063961 10.4836193,6.32590222 10.4836193,6.73946958 L10.4836193,14.7702028 C10.700312,14.8867395 11.0138846,14.9550702 11.2324493,14.9723869 L18.7207488,14.9723869 C18.9393136,14.9550702 19.2519501,14.8867395 19.4695788,14.7711388 L19.4695788,6.72542902 C19.4619261,6.3173551 19.1288945,5.99063961 18.7207488,5.99063961 Z" id="Shape" opacity="0.4"></path><path d="M29.8460218,21.9079563 L27.7867395,16.7597504 L25.8636505,18.9313573 L25.7700468,19.7831513 L27.0659906,23.0218409 C27.2935254,23.5898184 27.84368,23.9622707 28.4555382,23.9625786 C28.6464497,23.9635616 28.8356926,23.9269853 29.0124805,23.8549142 C29.7802569,23.5474146 30.15343,22.6757693 29.8460218,21.9079563 L29.8460218,21.9079563 Z M2.1673947,16.7597504 L0.108112324,21.9079563 C-0.182778911,22.6715673 0.192118123,23.5274036 0.950638251,23.8313224 C1.70915838,24.1352412 2.57128613,23.7750479 2.88814353,23.0218409 L4.1850234,19.7831513 L4.09141966,18.9313573 L2.1673947,16.7597504 Z M9.20218409,9.16848674 C8.81247138,8.00017832 8.01275142,7.01258236 6.95101404,6.38845554 C6.15137696,5.9184111 5.17466002,5.86095716 4.32542902,6.23400936 C3.43956485,6.61558377 2.78798906,7.39573718 2.57035881,8.33541342 L1.70920437,12.0889236 C1.49278668,13.0304035 1.74372352,14.0184673 2.38315133,14.7425897 L5.52823713,18.2948518 L6.00046802,22.6287051 C6.08396669,23.3875426 6.72488211,23.9621286 7.48829953,23.9625585 C7.54399376,23.9625585 7.59547582,23.9578783 7.65210608,23.9531981 C8.04701078,23.910261 8.40858642,23.7119101 8.65700296,23.4019383 C8.90541949,23.0919664 9.02024614,22.6958669 8.97613105,22.301092 L8.50343214,17.9578783 C8.43320477,17.3501573 8.17857741,16.7785116 7.77379095,16.3198128 L5.74680187,14.0265211 L6.57098284,10.7363495 L6.88876755,11.6911076 C7.08065523,12.276131 7.44617785,12.7862715 8.03541342,13.2168487 L10.4269891,14.7379095 C10.4447738,14.749142 10.4634945,14.7594384 10.4826833,14.7697348 L10.4826833,11.2324493 L9.73104524,10.7550702 L9.20218409,9.16848674 Z M28.2458658,12.0889236 L27.3790952,8.33541342 C27.1614649,7.39573718 26.5098891,6.61558377 25.624025,6.23400936 C24.7748219,5.8608015 23.798031,5.91825979 22.9984399,6.38845554 C21.9383993,7.01466994 21.1391466,8.00148363 20.7468019,9.16848674 L20.2184087,10.7550702 L19.4695788,11.2324493 L19.4695788,14.7706708 C19.4892356,14.7599064 19.5084243,14.749142 19.526209,14.7379095 L21.9177847,13.2168487 C22.5079563,12.7862715 22.8725429,12.2808112 23.0644306,11.6911076 L23.3831513,10.7363495 L24.2063963,14.0265211 L22.1803432,16.3198128 C21.7748592,16.7781632 21.5198474,17.3499383 21.449766,17.9578783 L20.9770671,22.301092 C20.8868237,23.1231587 21.4799815,23.8627726 22.3020281,23.9531981 C22.3577223,23.9578783 22.4092044,23.9625585 22.4658346,23.9625585 C23.2292521,23.9621286 23.8701675,23.3875426 23.9536661,22.6287051 L24.4268331,18.2948518 L27.5714509,14.7425897 C28.2082426,14.0170748 28.4589904,13.0304402 28.2458658,12.0889236 L28.2458658,12.0889236 Z" id="Shape"></path></g></g></g></g></g></svg> 