<?xml version="1.0" encoding="UTF-8"?> <svg xmlns="http://www.w3.org/2000/svg" xmlns:xlink="http://www.w3.org/1999/xlink" width="60px" height="61px" viewBox="0 0 60 61"><!-- Generator: Sketch 57.1 (83088) - https://sketch.com --><title>Group 11</title><desc>Created with Sketch.</desc><g id="Wireframes" stroke="none" stroke-width="1" fill="none" fill-rule="evenodd"><g id="01---Homepage" transform="translate(-949.000000, -5205.000000)" fill="#EF3D5B"><g id="Group-21-Copy-2" transform="translate(949.000000, 5205.500000)"><g id="Group-11"><rect id="Rectangle" opacity="0.2" x="0" y="0" width="60" height="60" rx="8"></rect><g id="clipboard-list-check" transform="translate(18.750000, 15.000000)" fill-rule="nonzero"><path d="M19.5348837,3.72093023 L14.8837209,3.72093023 C16.938734,3.72093023 18.6046512,5.38684744 18.6046512,7.44186047 L3.72093023,7.44186047 C3.72093023,5.38684744 5.38684744,3.72093023 7.44186047,3.72093023 L2.79069767,3.72093023 C1.24943791,3.72093023 0,4.97036814 0,6.51162791 L0,26.9767442 C0,28.518004 1.24943791,29.7674419 2.79069767,29.7674419 L19.5348837,29.7674419 C21.0761435,29.7674419 22.3255814,28.518004 22.3255814,26.9767442 L22.3255814,6.51162791 C22.3255814,4.97036814 21.0761435,3.72093023 19.5348837,3.72093023 Z M3.81395349,14.0348837 L4.55232558,13.3023256 C4.61088954,13.243674 4.69037191,13.2107166 4.77325581,13.2107166 C4.85613972,13.2107166 4.93562209,13.243674 4.99418605,13.3023256 L6.19186047,14.5116279 L8.95930233,11.7674419 C9.01786628,11.7087903 9.09734865,11.6758328 9.18023256,11.6758328 C9.26311647,11.6758328 9.34259883,11.7087903 9.40116279,11.7674419 L10.1337209,12.505814 C10.1923725,12.5643779 10.22533,12.6438603 10.22533,12.7267442 C10.22533,12.8096281 10.1923725,12.8891105 10.1337209,12.9476744 L6.40116279,16.6453488 C6.34259883,16.7040004 6.26311647,16.7369579 6.18023256,16.7369579 C6.09734865,16.7369579 6.01786628,16.7040004 5.95930233,16.6453488 L3.81395349,14.4767442 C3.75530193,14.4181802 3.72234446,14.3386979 3.72234446,14.255814 C3.72234446,14.17293 3.75530193,14.0934477 3.81395349,14.0348837 Z M5.58139535,22.7907021 C4.81076547,22.7907021 4.18604651,22.1659787 4.18604651,21.3953488 C4.18604651,20.624719 4.81076547,20 5.58139535,20 C6.35202523,20 6.97674857,20.624719 6.97674857,21.3953488 C6.97767356,21.7657025 6.83096248,22.1211552 6.56908208,22.3830356 C6.30720167,22.644916 5.951749,22.791627 5.58139535,22.7907021 Z M18.6046512,21.8604651 C18.6046512,22.1173417 18.3964115,22.3255814 18.1395349,22.3255814 L9.76744186,22.3255814 C9.51056523,22.3255814 9.30232558,22.1173417 9.30232558,21.8604651 L9.30232558,20.9302326 C9.30232558,20.6733559 9.51056523,20.4651163 9.76744186,20.4651163 L18.1395349,20.4651163 C18.3964115,20.4651163 18.6046512,20.6733559 18.6046512,20.9302326 L18.6046512,21.8604651 Z M18.6046512,16.2790698 C18.6046512,16.5348837 18.3546512,16.744186 18.0465116,16.744186 L8.95930233,16.744186 L10.8372093,14.8837209 L18.0465116,14.8837209 C18.3546512,14.8837209 18.6046512,15.0930233 18.6046512,15.3488372 L18.6046512,16.2790698 Z" id="Shape" opacity="0.4"></path><path d="M5.58139535,19.9999956 C4.81076547,19.9999956 4.18604651,20.624719 4.18604651,21.3953488 C4.18604651,22.1659787 4.81076547,22.7906977 5.58139535,22.7906977 C6.35202523,22.7906977 6.97674857,22.1659787 6.97674857,21.3953488 C6.97767356,21.0249952 6.83096248,20.6695425 6.56908208,20.4076621 C6.30720167,20.1457817 5.951749,19.9990706 5.58139535,19.9999956 L5.58139535,19.9999956 Z M9.40116279,11.7674419 C9.34259883,11.7087903 9.26311647,11.6758328 9.18023256,11.6758328 C9.09734865,11.6758328 9.01786628,11.7087903 8.95930233,11.7674419 L6.19186047,14.5116279 L4.99418605,13.3023256 C4.93562209,13.243674 4.85613972,13.2107166 4.77325581,13.2107166 C4.69037191,13.2107166 4.61088954,13.243674 4.55232558,13.3023256 L3.81395349,14.0348837 C3.75530193,14.0934477 3.72234446,14.17293 3.72234446,14.255814 C3.72234446,14.3386979 3.75530193,14.4181802 3.81395349,14.4767442 L5.95930233,16.6453488 C6.01786628,16.7040004 6.09734865,16.7369579 6.18023256,16.7369579 C6.26311647,16.7369579 6.34259883,16.7040004 6.40116279,16.6453488 L10.1337209,12.9476744 C10.1923725,12.8891105 10.22533,12.8096281 10.22533,12.7267442 C10.22533,12.6438603 10.1923725,12.5643779 10.1337209,12.505814 L9.40116279,11.7674419 Z M14.8837209,3.72093023 C14.8837209,1.66591721 13.2178037,0 11.1627907,0 C9.10777768,0 7.44186047,1.66591721 7.44186047,3.72093023 C5.38684744,3.72093023 3.72093023,5.38684744 3.72093023,7.44186047 L18.6046512,7.44186047 C18.6046512,5.38684744 16.938734,3.72093023 14.8837209,3.72093023 Z M11.1627907,5.11628346 C10.3921608,5.11628346 9.76744186,4.49156012 9.76744186,3.72093023 C9.76744186,2.95030035 10.3921608,2.3255814 11.1627907,2.3255814 C11.9334206,2.3255814 12.5581439,2.95030035 12.5581439,3.72093023 C12.5590689,4.09128388 12.4123578,4.44673656 12.1504774,4.70861696 C11.888597,4.97049736 11.5331443,5.11720844 11.1627907,5.11628346 Z" id="Shape"></path></g></g></g></g></g></svg> 