<?xml version="1.0" encoding="UTF-8"?> <svg xmlns="http://www.w3.org/2000/svg" xmlns:xlink="http://www.w3.org/1999/xlink" width="24px" height="20px" viewBox="0 0 24 20"><!-- Generator: Sketch 57.1 (83088) - https://sketch.com --><title>user-clock</title><desc>Created with Sketch.</desc><g id="Wireframes" stroke="none" stroke-width="1" fill="none" fill-rule="evenodd"><g id="01---Homepage" transform="translate(-528.000000, -1697.000000)" fill="#EF3D5B" fill-rule="nonzero"><g id="Group-11-Copy-3" transform="translate(528.000000, 1690.000000)"><g id="user-clock" transform="translate(0.000000, 7.000000)"><path d="M18.6,8.39999894 C15.6176624,8.39999894 13.2,10.8176624 13.2,13.8 C13.2,16.7823376 15.6176624,19.2 18.6,19.2 C21.5823376,19.2 24.0000011,16.7823376 24.0000011,13.8 C24.0008961,12.3675564 23.432257,10.9935246 22.4193662,9.98063381 C21.4064754,8.96774305 20.0324436,8.39910388 18.6,8.39999894 L18.6,8.39999894 Z M21,14.03625 C20.99857,14.2365483 20.8365483,14.39857 20.63625,14.4 L18.36375,14.4 C18.1634517,14.39857 18.00143,14.2365483 18,14.03625 L18,11.16375 C18.00143,10.9634517 18.1634517,10.80143 18.36375,10.8 L18.83625,10.8 C19.0365483,10.80143 19.19857,10.9634517 19.2,11.16375 L19.2,13.2 L20.63625,13.2 C20.8365483,13.20143 20.99857,13.3634517 21,13.56375 L21,14.03625 Z" id="Shape" opacity="0.4"></path><path d="M8.4,9.6 C11.0509668,9.6 13.2,7.4509668 13.2,4.8 C13.2,2.1490332 11.0509668,0 8.4,0 C5.7490332,0 3.6,2.1490332 3.6,4.8 C3.6,7.4509668 5.7490332,9.6 8.4,9.6 Z M12,13.8 C12.0017185,12.7917413 12.2352338,11.7973768 12.6825,10.89375 C12.3785704,10.8339751 12.0697411,10.80259 11.76,10.8 L11.13375,10.8 C9.39903629,11.5999763 7.40096371,11.5999763 5.66625,10.8 L5.04,10.8 C2.25674215,10.8006211 0.000621054993,13.0567422 2.84217094e-14,15.84 L2.84217094e-14,17.4 C2.84217094e-14,18.3941125 0.80588745,19.2 1.8,19.2 L14.81625,19.2 C13.1175,18.00375 12,16.03125 12,13.8 Z" id="Shape"></path></g></g></g></g></svg> 