<?xml version="1.0" encoding="UTF-8"?> <svg xmlns="http://www.w3.org/2000/svg" xmlns:xlink="http://www.w3.org/1999/xlink" width="24px" height="22px" viewBox="0 0 24 22"><!-- Generator: Sketch 57.1 (83088) - https://sketch.com --><title>server</title><desc>Created with Sketch.</desc><g id="Wireframes" stroke="none" stroke-width="1" fill="none" fill-rule="evenodd"><g id="01---Homepage" transform="translate(-120.000000, -1695.000000)" fill="#EF3D5B" fill-rule="nonzero"><g id="Group-11-Copy-2" transform="translate(120.000000, 1690.000000)"><g id="server" transform="translate(0.000000, 5.500000)"><path d="M20.25,4.125 C20.8713203,4.125 21.375,3.62132034 21.375,3 C21.375,2.37867966 20.8713203,1.875 20.25,1.875 C19.6286797,1.875 19.125,2.37867966 19.125,3 C19.125,3.62132034 19.6286797,4.125 20.25,4.125 Z M20.25,16.875 C19.6286797,16.875 19.125,17.3786797 19.125,18 C19.125,18.6213203 19.6286797,19.125 20.25,19.125 C20.8713203,19.125 21.375,18.6213203 21.375,18 C21.375,17.3786797 20.8713203,16.875 20.25,16.875 Z M22.5,7.5 L1.5,7.5 C0.671572875,7.5 0,8.17157288 0,9 L0,12 C0,12.8284271 0.671572875,13.5 1.5,13.5 L22.5,13.5 C23.3284271,13.5 24,12.8284271 24,12 L24,9 C24,8.17157288 23.3284271,7.5 22.5,7.5 Z M17.25,11.625 C16.6286797,11.625 16.125,11.1213203 16.125,10.5 C16.125,9.87867966 16.6286797,9.375 17.25,9.375 C17.8713203,9.375 18.375,9.87867966 18.375,10.5 C18.375,11.1213203 17.8713203,11.625 17.25,11.625 Z M20.25,11.625 C19.6286797,11.625 19.125,11.1213203 19.125,10.5 C19.125,9.87867966 19.6286797,9.375 20.25,9.375 C20.8713203,9.375 21.375,9.87867966 21.375,10.5 C21.375,11.1213203 20.8713203,11.625 20.25,11.625 Z" id="Shape" opacity="0.4"></path><path d="M21.375,10.5 C21.375,9.87867966 20.8713203,9.375 20.25,9.375 C19.6286797,9.375 19.125,9.87867966 19.125,10.5 C19.125,11.1213203 19.6286797,11.625 20.25,11.625 C20.8713203,11.625 21.375,11.1213203 21.375,10.5 Z M22.5,0 L1.5,0 C0.671572875,0 0,0.671572875 0,1.5 L0,4.5 C0,5.32842712 0.671572875,6 1.5,6 L22.5,6 C23.3284271,6 24,5.32842712 24,4.5 L24,1.5 C24,0.671572875 23.3284271,0 22.5,0 Z M17.25,4.125 C16.6286797,4.125 16.125,3.62132034 16.125,3 C16.125,2.37867966 16.6286797,1.875 17.25,1.875 C17.8713203,1.875 18.375,2.37867966 18.375,3 C18.375,3.62132034 17.8713203,4.125 17.25,4.125 L17.25,4.125 Z M20.25,4.125 C19.6286797,4.125 19.125,3.62132034 19.125,3 C19.125,2.37867966 19.6286797,1.875 20.25,1.875 C20.8713203,1.875 21.375,2.37867966 21.375,3 C21.375,3.62132034 20.8713203,4.125 20.25,4.125 L20.25,4.125 Z M22.5,15 L1.5,15 C0.671572875,15 0,15.6715729 0,16.5 L0,19.5 C0,20.3284271 0.671572875,21 1.5,21 L22.5,21 C23.3284271,21 24,20.3284271 24,19.5 L24,16.5 C24,15.6715729 23.3284271,15 22.5,15 Z M17.25,19.125 C16.6286797,19.125 16.125,18.6213203 16.125,18 C16.125,17.3786797 16.6286797,16.875 17.25,16.875 C17.8713203,16.875 18.375,17.3786797 18.375,18 C18.375,18.6213203 17.8713203,19.125 17.25,19.125 Z M20.25,19.125 C19.6286797,19.125 19.125,18.6213203 19.125,18 C19.125,17.3786797 19.6286797,16.875 20.25,16.875 C20.8713203,16.875 21.375,17.3786797 21.375,18 C21.375,18.6213203 20.8713203,19.125 20.25,19.125 Z" id="Shape"></path></g></g></g></g></svg> 